<?xml version="1.0" standalone="no"?>
<!DOCTYPE svg PUBLIC "-//W3C//DTD SVG 20010904//EN"
 "http://www.w3.org/TR/2001/REC-SVG-20010904/DTD/svg10.dtd">
<svg version="1.0" xmlns="http://www.w3.org/2000/svg"
 width="150.000000pt" height="150.000000pt" viewBox="0 0 150.000000 150.000000"
 preserveAspectRatio="xMidYMid meet">

<g transform="translate(0.000000,150.000000) scale(0.100000,-0.100000)"
fill="#000000" stroke="none">
<path d="M517 1326 c-56 -15 -102 -55 -128 -111 -16 -35 -19 -67 -19 -244 l0
-204 -37 6 c-50 8 -74 36 -80 89 -5 40 -3 46 16 51 20 5 22 11 19 59 l-3 53
-75 0 -75 0 0 -121 c0 -116 1 -122 28 -161 34 -49 91 -82 157 -90 l50 -6 0
-61 c1 -96 49 -178 123 -205 16 -6 86 -11 157 -11 107 0 129 3 134 16 9 23 7
167 -3 182 -5 9 -25 12 -62 10 l-54 -3 -3 -43 -3 -42 -58 0 c-76 0 -102 25
-109 105 l-4 55 227 0 c144 0 242 4 266 12 58 17 114 70 133 125 19 56 22 213
4 231 -8 8 -60 12 -170 12 l-158 0 0 139 c0 133 -1 141 -22 155 -28 20 -180
21 -251 2z m143 -249 c0 -98 4 -147 12 -155 8 -8 62 -12 175 -12 l163 0 0 -24
c0 -43 -22 -86 -51 -101 -22 -12 -74 -15 -249 -15 l-220 0 0 185 c0 124 4 193
12 211 15 33 59 53 116 54 l42 0 0 -143z"/>
<path d="M1035 598 c-107 -38 -155 -159 -105 -263 50 -103 216 -124 306 -40
42 40 45 64 4 35 -77 -55 -167 -24 -195 68 -6 22 -6 22 97 22 68 0 108 4 116
12 17 17 15 73 -4 109 -29 57 -139 85 -219 57z m109 -40 c19 -27 21 -79 4 -96
-7 -7 -34 -12 -61 -12 l-50 0 6 45 c8 77 66 113 101 63z"/>
</g>
</svg>
